<svg width="250" height="176" viewBox="0 0 250 176" fill="none" xmlns="http://www.w3.org/2000/svg">
<g filter="url(#filter0_d_8_242)">
<rect x="40" y="10" width="170" height="96" rx="16" fill="white"/>
</g>
<path fill-rule="evenodd" clip-rule="evenodd" d="M141.2 51.3099L139.2 47.9299L135.65 49.6199L133.65 46.2299L130.1 47.9299L128.11 44.5299L124.56 46.2299L122.56 42.8399L119.01 44.5399L117.02 41.1399L113.46 42.8399L105.93 67.3599L115.08 70.1599C115.425 69.0547 116.153 68.1093 117.134 67.4944C118.115 66.8796 119.284 66.6359 120.429 66.8074C121.573 66.9789 122.619 67.5542 123.377 68.4295C124.135 69.3048 124.554 70.4222 124.56 71.5799V71.6799C124.58 72.1199 124.53 72.5599 124.4 72.9999L133.7 75.8499L141.2 51.3099Z" fill="#D61920"/>
<path fill-rule="evenodd" clip-rule="evenodd" d="M113.78 65.34C113.549 65.3017 113.339 65.1818 113.188 65.002C113.038 64.8222 112.957 64.5944 112.96 64.36V52.36C112.959 52.2283 112.984 52.0976 113.033 51.9757C113.083 51.8538 113.157 51.743 113.25 51.6499C113.343 51.5568 113.454 51.4832 113.576 51.4334C113.698 51.3836 113.828 51.3586 113.96 51.36H122.63C123.141 51.3587 123.647 51.458 124.119 51.6523C124.592 51.8465 125.021 52.132 125.384 52.4923C125.746 52.8525 126.033 53.2806 126.23 53.7521C126.427 54.2236 126.529 54.7291 126.53 55.24V64.36C126.53 64.5073 126.497 64.6527 126.434 64.7858C126.371 64.9189 126.279 65.0365 126.166 65.1301C126.052 65.2237 125.919 65.2911 125.776 65.3274C125.634 65.3637 125.485 65.368 125.34 65.34C125.111 65.2996 124.903 65.1788 124.754 64.9992C124.606 64.8196 124.526 64.593 124.53 64.36V55.25C124.53 54.7461 124.33 54.2628 123.973 53.9065C123.617 53.5502 123.134 53.35 122.63 53.35H120.74V64.35C120.741 64.484 120.715 64.6167 120.663 64.7404C120.612 64.8641 120.536 64.9762 120.44 65.07C120.326 65.1829 120.187 65.2664 120.033 65.3135C119.88 65.3605 119.718 65.3696 119.56 65.34C119.329 65.3017 119.119 65.1818 118.968 65.002C118.818 64.8222 118.737 64.5944 118.74 64.36V53.35H114.96V64.35C114.961 64.4971 114.929 64.6426 114.868 64.7761C114.806 64.9096 114.715 65.0279 114.603 65.1224C114.49 65.217 114.358 65.2855 114.216 65.3231C114.073 65.3607 113.925 65.3665 113.78 65.34ZM128.2 70.57C127.967 70.5315 127.756 70.4101 127.605 70.2282C127.454 70.0463 127.374 69.8161 127.38 69.58C127.381 69.3176 127.485 69.0662 127.67 68.88C127.855 68.6916 128.106 68.5837 128.37 68.58C129.22 68.58 129.95 68.04 130.19 67.23L131.22 63.8L127.85 52.53C127.81 52.4039 127.795 52.2712 127.806 52.1394C127.818 52.0076 127.856 51.8794 127.917 51.7622C127.978 51.645 128.062 51.5411 128.164 51.4566C128.266 51.3722 128.383 51.3087 128.51 51.27C128.762 51.2002 129.031 51.2297 129.262 51.3525C129.492 51.4753 129.667 51.682 129.75 51.93L132.25 60.33L134.79 51.93C134.91 51.47 135.42 51.16 135.94 51.26L136.01 51.27C136.55 51.44 136.85 52.01 136.69 52.54L133.22 64.1L132.12 67.8C131.873 68.5962 131.384 69.2955 130.72 69.8C130.045 70.3063 129.224 70.58 128.38 70.58C128.32 70.5823 128.26 70.5789 128.2 70.57Z" fill="#FEFEFE"/>
<path fill-rule="evenodd" clip-rule="evenodd" d="M67.08 63.1499H69.04C69.5625 63.1499 70.0635 62.9423 70.433 62.5729C70.8024 62.2034 71.01 61.7023 71.01 61.1799V55.4099C71.0113 55.1512 70.9617 54.8947 70.8639 54.6552C70.7661 54.4157 70.6221 54.1978 70.4401 54.0139C70.2581 53.8301 70.0416 53.6839 69.8031 53.5836C69.5646 53.4834 69.3087 53.4312 69.05 53.4299H67.08V63.1299V63.1499ZM65.85 65.2099C65.6099 65.1693 65.3922 65.0442 65.2363 64.8571C65.0804 64.67 64.9966 64.4334 65 64.1899V46.2699C64.9982 46.1328 65.0239 45.9967 65.0754 45.8696C65.1269 45.7425 65.2032 45.627 65.3 45.5299C65.417 45.4083 65.5621 45.3174 65.7226 45.2651C65.883 45.2128 66.0538 45.2007 66.22 45.2299C66.72 45.3299 67.08 45.7499 67.08 46.2599V51.3599H69.04C69.5714 51.3586 70.0978 51.4621 70.5891 51.6645C71.0804 51.867 71.527 52.1643 71.9032 52.5396C72.2794 52.9149 72.5779 53.3607 72.7815 53.8515C72.9852 54.3423 73.09 54.8685 73.09 55.3999V61.1699C73.0874 62.2405 72.6609 63.2666 71.9038 64.0237C71.1467 64.7807 70.1207 65.2072 69.05 65.2099H66.04C65.9732 65.2138 65.9061 65.2105 65.84 65.1999L65.85 65.2099Z" fill="#333545"/>
<path fill-rule="evenodd" clip-rule="evenodd" d="M80.14 53.3499C80.0277 53.3303 79.914 53.3203 79.8 53.3199C79.5405 53.3172 79.2832 53.3664 79.043 53.4644C78.8027 53.5625 78.5845 53.7075 78.401 53.891C78.2176 54.0744 78.0726 54.2927 77.9745 54.5329C77.8764 54.7731 77.8273 55.0305 77.83 55.2899V61.2999C77.8287 61.559 77.8787 61.8158 77.9772 62.0554C78.0758 62.295 78.2208 62.5127 78.404 62.6959C78.5872 62.8791 78.8049 63.0241 79.0445 63.1227C79.2842 63.2212 79.5409 63.2712 79.8 63.2699C80.3225 63.2699 80.8235 63.0624 81.193 62.6929C81.5624 62.3235 81.77 61.8224 81.77 61.2999V55.2999C81.77 54.3299 81.08 53.5199 80.14 53.3499ZM79.09 65.2999C78.1524 65.135 77.3032 64.6442 76.6921 63.9142C76.081 63.1842 75.7474 62.2619 75.75 61.3099V55.2999C75.7482 54.768 75.8526 54.2411 76.0569 53.75C76.2612 53.259 76.5614 52.8136 76.94 52.4399C77.3155 52.0645 77.7614 51.767 78.2522 51.5645C78.7431 51.362 79.269 51.2585 79.8 51.2599C80.8715 51.2599 81.8991 51.6856 82.6567 52.4432C83.4144 53.2009 83.84 54.2284 83.84 55.2999V61.3099C83.84 62.3899 83.42 63.4099 82.65 64.1799C82.276 64.5546 81.8318 64.8517 81.3427 65.0541C80.8536 65.2566 80.3293 65.3606 79.8 65.3599C79.562 65.3609 79.3244 65.3408 79.09 65.2999ZM90.89 53.3599C90.7777 53.3402 90.664 53.3302 90.55 53.3299C90.2905 53.3272 90.0332 53.3764 89.793 53.4744C89.5527 53.5725 89.3345 53.7175 89.151 53.901C88.9676 54.0844 88.8226 54.3027 88.7245 54.5429C88.6264 54.7831 88.5773 55.0405 88.58 55.2999V61.3099C88.5787 61.569 88.6287 61.8258 88.7273 62.0654C88.8258 62.305 88.9708 62.5227 89.154 62.7059C89.3372 62.8891 89.5549 63.0341 89.7945 63.1327C90.0341 63.2312 90.2909 63.2812 90.55 63.2799C90.8091 63.2812 91.0658 63.2312 91.3054 63.1327C91.5451 63.0341 91.7628 62.8891 91.9459 62.7059C92.1291 62.5227 92.2742 62.305 92.3727 62.0654C92.4713 61.8258 92.5213 61.569 92.52 61.3099V55.2999C92.52 54.3399 91.83 53.5299 90.89 53.3599ZM89.84 65.2999C88.9042 65.1329 88.0573 64.6412 87.4483 63.9114C86.8392 63.1816 86.507 62.2605 86.51 61.3099V55.2999C86.5116 54.7106 86.6417 54.1287 86.8914 53.5948C87.1411 53.061 87.5043 52.5881 87.9557 52.2091C88.407 51.8301 88.9356 51.5542 89.5046 51.4006C90.0736 51.247 90.6693 51.2195 91.25 51.3199C92.1877 51.4825 93.038 51.9708 93.6508 52.699C94.2637 53.4271 94.5998 54.3482 94.6 55.2999V61.3099C94.6012 61.8441 94.4957 62.3732 94.2896 62.866C94.0836 63.3589 93.7811 63.8056 93.4 64.1799C93.026 64.5546 92.5818 64.8517 92.0927 65.0541C91.6036 65.2566 91.0793 65.3606 90.55 65.3599C90.31 65.3599 90.07 65.3399 89.84 65.2999ZM98.11 65.3399C97.8699 65.2994 97.6522 65.1742 97.4963 64.9872C97.3404 64.8001 97.2566 64.5634 97.26 64.3199V46.2699C97.26 45.9899 97.36 45.7199 97.56 45.5299C97.678 45.4135 97.8223 45.3272 97.9807 45.2785C98.1391 45.2297 98.307 45.2199 98.47 45.2499C98.97 45.3299 99.34 45.7599 99.34 46.2699V56.9499L104.12 51.5899C104.36 51.3299 104.72 51.2099 105.08 51.2699C105.262 51.3003 105.432 51.3787 105.572 51.4971C105.713 51.6155 105.82 51.7694 105.881 51.943C105.943 52.1165 105.956 52.3033 105.921 52.4839C105.885 52.6645 105.802 52.8323 105.68 52.9699L102.07 56.9999L105.8 63.8299C105.867 63.9451 105.911 64.0726 105.928 64.2048C105.945 64.337 105.936 64.4714 105.9 64.5999C105.861 64.7324 105.796 64.8556 105.709 64.9622C105.621 65.0688 105.513 65.1564 105.39 65.2199C105.178 65.3416 104.93 65.3842 104.69 65.3399C104.541 65.3147 104.399 65.2568 104.274 65.1703C104.15 65.0839 104.046 64.9711 103.97 64.8399L100.61 58.6599L99.33 60.0699V64.3199C99.33 64.5957 99.2204 64.8603 99.0254 65.0553C98.8303 65.2503 98.5658 65.3599 98.29 65.3599C98.22 65.3599 98.16 65.3599 98.09 65.3399H98.11ZM143.92 65.3299C143.358 65.2357 142.823 65.0172 142.356 64.6902C141.889 64.3632 141.501 63.9361 141.22 63.4399C141.083 63.1968 141.047 62.9093 141.12 62.6399C141.2 62.3799 141.37 62.1599 141.6 62.0199C141.814 61.9032 142.061 61.8644 142.3 61.9099C142.6 61.9599 142.87 62.1399 143.02 62.4099C143.29 62.8699 143.72 63.1699 144.25 63.2599C144.523 63.3074 144.804 63.2925 145.07 63.2163C145.337 63.1401 145.583 63.0046 145.79 62.8199C146.19 62.4499 146.39 61.9199 146.34 61.3999C146.329 61.1334 146.255 60.8732 146.125 60.6404C145.995 60.4076 145.811 60.2088 145.59 60.0599L142.79 58.0699C142.334 57.7496 141.954 57.3326 141.677 56.8486C141.401 56.3646 141.234 55.8256 141.19 55.2699C141.154 54.7093 141.246 54.1478 141.459 53.628C141.672 53.1082 142.001 52.6438 142.42 52.2699C142.829 51.8896 143.318 51.6052 143.851 51.4374C144.383 51.2697 144.947 51.2227 145.5 51.2999C146.68 51.4999 147.64 52.1799 148.19 53.1399C148.323 53.3798 148.357 53.6617 148.286 53.9265C148.215 54.1912 148.045 54.4183 147.81 54.5599C147.598 54.6816 147.35 54.7242 147.11 54.6799C146.961 54.6547 146.819 54.5968 146.694 54.5103C146.57 54.4239 146.466 54.3111 146.39 54.1799C146.265 53.9678 146.094 53.786 145.89 53.6477C145.686 53.5094 145.454 53.4179 145.21 53.3799C144.961 53.3348 144.705 53.3484 144.462 53.4196C144.219 53.4907 143.995 53.6175 143.81 53.7899C143.629 53.9608 143.488 54.1694 143.396 54.401C143.304 54.6325 143.265 54.8814 143.28 55.1299C143.3 55.6199 143.58 56.0999 144 56.3799L146.8 58.3299C147.275 58.6627 147.668 59.0997 147.949 59.6074C148.23 60.1152 148.391 60.6804 148.42 61.2599C148.466 61.8367 148.377 62.4163 148.16 62.9528C147.943 63.4892 147.604 63.9676 147.17 64.3499C146.748 64.7424 146.243 65.0358 145.693 65.2088C145.143 65.3818 144.561 65.43 143.99 65.3499L143.91 65.3299H143.92ZM151.95 65.3599C151.71 65.3177 151.492 65.1924 151.335 65.006C151.178 64.8195 151.091 64.5838 151.09 64.3399V46.2899C151.089 46.153 151.115 46.0171 151.166 45.8903C151.218 45.7636 151.295 45.6484 151.392 45.5515C151.488 45.4547 151.604 45.3781 151.73 45.3264C151.857 45.2746 151.993 45.2486 152.13 45.2499L152.33 45.2599C152.83 45.3599 153.17 45.7699 153.17 46.2899V51.3899H155.14C155.671 51.3886 156.197 51.4922 156.688 51.6948C157.178 51.8973 157.624 52.1948 158 52.5703C158.375 52.9457 158.673 53.3916 158.875 53.8823C159.078 54.3731 159.181 54.899 159.18 55.4299V64.3299C159.181 64.4809 159.148 64.6302 159.085 64.7673C159.022 64.9045 158.929 65.026 158.814 65.1233C158.698 65.2206 158.563 65.2914 158.417 65.3305C158.271 65.3697 158.119 65.3763 157.97 65.3499C157.47 65.2599 157.11 64.8299 157.11 64.3199V55.4199C157.11 55.1617 157.059 54.906 156.96 54.6675C156.861 54.4291 156.715 54.2126 156.532 54.0304C156.349 53.8483 156.132 53.7041 155.893 53.6062C155.654 53.5083 155.398 53.4586 155.14 53.4599H153.17V64.3299C153.171 64.4819 153.139 64.6323 153.075 64.7702C153.011 64.9082 152.917 65.0303 152.801 65.1278C152.684 65.2253 152.547 65.2958 152.4 65.3342C152.253 65.3726 152.099 65.378 151.95 65.3499V65.3599ZM166.23 53.3699C165.947 53.3185 165.655 53.3301 165.377 53.404C165.099 53.4779 164.84 53.6123 164.619 53.7975C164.399 53.9827 164.222 54.2143 164.101 54.4757C163.98 54.7371 163.918 55.0219 163.92 55.3099V61.3199C163.919 61.5781 163.968 61.8341 164.066 62.073C164.164 62.312 164.308 62.5292 164.491 62.7123C164.673 62.8954 164.889 63.0406 165.128 63.1398C165.366 63.2389 165.622 63.2899 165.88 63.2899C166.4 63.2899 166.9 63.0899 167.27 62.7199C167.455 62.5371 167.602 62.319 167.702 62.0786C167.801 61.8381 167.852 61.5802 167.85 61.3199V55.2999C167.85 54.3399 167.17 53.5199 166.22 53.3599L166.23 53.3699ZM165.17 65.2899C164.235 65.125 163.388 64.6353 162.779 63.9072C162.17 63.1791 161.837 62.2593 161.84 61.3099V55.2999C161.84 54.7097 161.969 54.1267 162.218 53.5916C162.467 53.0565 162.83 52.5824 163.282 52.2023C163.733 51.8222 164.262 51.5454 164.832 51.3913C165.402 51.2371 165.998 51.2094 166.58 51.3099C167.519 51.4728 168.371 51.9626 168.984 52.6928C169.597 53.423 169.932 54.3465 169.93 55.2999V61.3099C169.93 61.8425 169.825 62.3698 169.618 62.861C169.412 63.3521 169.11 63.7971 168.73 64.1699C168.271 64.6305 167.708 64.973 167.088 65.1681C166.468 65.3631 165.81 65.4049 165.17 65.2899Z" fill="#333545"/>
<path fill-rule="evenodd" clip-rule="evenodd" d="M185.9 52.5398C185.934 52.4128 185.943 52.2802 185.926 52.1498C185.909 52.0194 185.866 51.8937 185.8 51.7798C185.724 51.6584 185.625 51.5534 185.509 51.471C185.392 51.3885 185.26 51.3303 185.12 51.2998C184.862 51.251 184.595 51.3026 184.374 51.4438C184.153 51.585 183.994 51.8054 183.93 52.0598C183.93 52.1098 182.81 56.6198 181.93 60.0498L181.91 60.1198L181.89 60.0498L179.89 52.0698C179.851 51.875 179.754 51.6967 179.611 51.559C179.468 51.4213 179.286 51.3308 179.09 51.2998C179.031 51.2881 178.97 51.2814 178.91 51.2798C178.45 51.2798 178.05 51.5998 177.92 52.0598C177.91 52.1098 176.79 56.6198 175.92 60.0498L175.9 60.1198L175.88 60.0498C175.03 56.6198 173.88 52.1098 173.88 52.0598C173.833 51.8684 173.731 51.6947 173.588 51.5599C173.444 51.425 173.264 51.3346 173.07 51.2998C172.904 51.2704 172.732 51.2828 172.572 51.3359C172.411 51.389 172.267 51.4812 172.151 51.6042C172.034 51.7272 171.951 51.8771 171.907 52.0404C171.863 52.2037 171.861 52.3753 171.9 52.5398L174.91 64.5698C174.967 64.7902 175.095 64.9859 175.273 65.1268C175.452 65.2677 175.672 65.3461 175.9 65.3498C176.39 65.3498 176.78 65.0298 176.88 64.5698L178.88 56.5798L178.91 56.5098L178.93 56.5798C179.81 60.0498 180.93 64.5798 180.93 64.5798C180.99 64.796 181.117 64.9874 181.293 65.1259C181.47 65.2645 181.686 65.3429 181.91 65.3498C182.14 65.357 182.366 65.2827 182.547 65.14C182.728 64.9974 182.853 64.7955 182.9 64.5698L185.9 52.5398Z" fill="#333545"/>
<defs>
<filter id="filter0_d_8_242" x="0" y="0" width="250" height="176" filterUnits="userSpaceOnUse" color-interpolation-filters="sRGB">
<feFlood flood-opacity="0" result="BackgroundImageFix"/>
<feColorMatrix in="SourceAlpha" type="matrix" values="0 0 0 0 0 0 0 0 0 0 0 0 0 0 0 0 0 0 127 0" result="hardAlpha"/>
<feOffset dy="30"/>
<feGaussianBlur stdDeviation="20"/>
<feColorMatrix type="matrix" values="0 0 0 0 0.831373 0 0 0 0 0.85098 0 0 0 0 0.909804 0 0 0 0.2 0"/>
<feBlend mode="normal" in2="BackgroundImageFix" result="effect1_dropShadow_8_242"/>
<feBlend mode="normal" in="SourceGraphic" in2="effect1_dropShadow_8_242" result="shape"/>
</filter>
</defs>
</svg>
