<svg width="250" height="165" viewBox="0 0 250 165" fill="none" xmlns="http://www.w3.org/2000/svg">
<g filter="url(#filter0_d_8_268)">
<rect x="40" y="10" width="170" height="96" rx="16" fill="white"/>
</g>
<path d="M69.4686 64H71.1406V54.056H74.9726V52.48H65.6366V54.056H69.4686V64ZM79.9839 53.912H81.5839V52.312H79.9839V53.912ZM76.7599 53.912H78.3599V52.312H76.7599V53.912ZM78.7119 64.232C79.3359 64.232 79.8879 64.12 80.3679 63.896C80.8533 63.672 81.2533 63.3627 81.5679 62.968V64H83.0559V55.36H81.3679V59.856C81.3679 60.5387 81.2693 61.0853 81.0719 61.496C80.8746 61.9013 80.6079 62.1947 80.2719 62.376C79.9413 62.5573 79.5759 62.648 79.1759 62.648C78.7173 62.648 78.3439 62.5547 78.0559 62.368C77.7679 62.1813 77.5466 61.936 77.3919 61.632C77.2373 61.328 77.1306 61 77.0719 60.648C77.0186 60.2907 76.9919 59.944 76.9919 59.608V55.36H75.2959V60.16C75.2959 60.4267 75.3199 60.736 75.3679 61.088C75.4159 61.44 75.5066 61.8 75.6399 62.168C75.7733 62.536 75.9653 62.8773 76.2159 63.192C76.4719 63.5013 76.8026 63.752 77.2079 63.944C77.6133 64.136 78.1146 64.232 78.7119 64.232ZM85.2917 64H86.9717V58.6C86.9717 58.0133 87.1317 57.5387 87.4517 57.176C87.777 56.8133 88.2037 56.632 88.7317 56.632C89.265 56.632 89.689 56.8133 90.0037 57.176C90.3237 57.5333 90.4837 58.024 90.4837 58.648L90.4757 64H92.1477L92.1557 58.6C92.1557 57.9493 92.329 57.4587 92.6757 57.128C93.0277 56.7973 93.441 56.632 93.9157 56.632C94.4384 56.632 94.8597 56.808 95.1797 57.16C95.4997 57.512 95.6597 57.9973 95.6597 58.616L95.6517 64H97.3237L97.3317 58.216C97.3317 57.288 97.073 56.544 96.5557 55.984C96.0437 55.424 95.3237 55.144 94.3957 55.144C93.8304 55.144 93.3184 55.2693 92.8597 55.52C92.401 55.7653 92.0384 56.1067 91.7717 56.544C91.5424 56.1067 91.2144 55.7653 90.7877 55.52C90.3664 55.2693 89.857 55.144 89.2597 55.144C88.7424 55.144 88.2677 55.248 87.8357 55.456C87.409 55.6587 87.057 55.936 86.7797 56.288V55.36H85.2917V64ZM103.937 53.912H105.537V52.312H103.937V53.912ZM100.713 53.912H102.313V52.312H100.713V53.912ZM102.665 64.232C103.289 64.232 103.841 64.12 104.321 63.896C104.806 63.672 105.206 63.3627 105.521 62.968V64H107.009V55.36H105.321V59.856C105.321 60.5387 105.222 61.0853 105.025 61.496C104.828 61.9013 104.561 62.1947 104.225 62.376C103.894 62.5573 103.529 62.648 103.129 62.648C102.67 62.648 102.297 62.5547 102.009 62.368C101.721 62.1813 101.5 61.936 101.345 61.632C101.19 61.328 101.084 61 101.025 60.648C100.972 60.2907 100.945 59.944 100.945 59.608V55.36H99.2491V60.16C99.2491 60.4267 99.2731 60.736 99.3211 61.088C99.3691 61.44 99.4597 61.8 99.5931 62.168C99.7264 62.536 99.9184 62.8773 100.169 63.192C100.425 63.5013 100.756 63.752 101.161 63.944C101.566 64.136 102.068 64.232 102.665 64.232ZM109.245 64H110.941V59.504C110.941 58.8213 111.039 58.2773 111.237 57.872C111.439 57.4613 111.706 57.1653 112.037 56.984C112.367 56.8027 112.733 56.712 113.133 56.712C113.591 56.712 113.965 56.8053 114.253 56.992C114.541 57.1787 114.762 57.424 114.917 57.728C115.071 58.032 115.175 58.3627 115.229 58.72C115.287 59.072 115.317 59.416 115.317 59.752V64H117.013V59.2C117.013 58.9333 116.989 58.624 116.941 58.272C116.893 57.92 116.802 57.56 116.669 57.192C116.535 56.824 116.341 56.4853 116.085 56.176C115.834 55.8613 115.506 55.608 115.101 55.416C114.695 55.224 114.194 55.128 113.597 55.128C112.973 55.128 112.418 55.24 111.933 55.464C111.453 55.688 111.055 55.9973 110.741 56.392V55.36H109.245V64ZM123.625 53.912H125.225V52.312H123.625V53.912ZM120.401 53.912H122.001V52.312H120.401V53.912ZM122.353 64.232C122.977 64.232 123.529 64.12 124.009 63.896C124.494 63.672 124.894 63.3627 125.209 62.968V64H126.697V55.36H125.009V59.856C125.009 60.5387 124.91 61.0853 124.713 61.496C124.515 61.9013 124.249 62.1947 123.913 62.376C123.582 62.5573 123.217 62.648 122.817 62.648C122.358 62.648 121.985 62.5547 121.697 62.368C121.409 62.1813 121.187 61.936 121.033 61.632C120.878 61.328 120.771 61 120.713 60.648C120.659 60.2907 120.633 59.944 120.633 59.608V55.36H118.937V60.16C118.937 60.4267 118.961 60.736 119.009 61.088C119.057 61.44 119.147 61.8 119.281 62.168C119.414 62.536 119.606 62.8773 119.857 63.192C120.113 63.5013 120.443 63.752 120.849 63.944C121.254 64.136 121.755 64.232 122.353 64.232ZM136.855 64.24C137.975 64.24 138.925 64.0027 139.703 63.528C140.487 63.048 141.085 62.3893 141.495 61.552C141.906 60.7147 142.111 59.7627 142.111 58.696C142.111 58.6533 142.109 58.5547 142.103 58.4C142.098 58.2453 142.09 58.1173 142.079 58.016H138.063V59.36H140.303C140.186 60.4267 139.845 61.2453 139.279 61.816C138.714 62.3813 137.938 62.6587 136.951 62.648C135.73 62.6373 134.81 62.2293 134.191 61.424C133.578 60.6187 133.274 59.5573 133.279 58.24C133.285 57.36 133.421 56.5893 133.687 55.928C133.959 55.2613 134.367 54.744 134.911 54.376C135.455 54.008 136.135 53.8267 136.951 53.832C137.746 53.8373 138.405 54.0453 138.927 54.456C139.45 54.8667 139.826 55.416 140.055 56.104L141.751 55.8C141.458 54.6907 140.906 53.8213 140.095 53.192C139.29 52.5627 138.21 52.248 136.855 52.248C135.805 52.248 134.877 52.4907 134.071 52.976C133.266 53.456 132.637 54.144 132.183 55.04C131.73 55.9307 131.503 56.9973 131.503 58.24C131.503 59.4987 131.735 60.576 132.199 61.472C132.663 62.368 133.298 63.0533 134.103 63.528C134.909 64.0027 135.826 64.24 136.855 64.24ZM148.282 53.912H149.882V52.312H148.282V53.912ZM145.058 53.912H146.658V52.312H145.058V53.912ZM147.458 64.24C148.317 64.24 149.063 64.048 149.698 63.664C150.333 63.2747 150.823 62.7387 151.17 62.056C151.522 61.368 151.698 60.5733 151.698 59.672C151.698 58.7813 151.525 57.9947 151.178 57.312C150.831 56.624 150.341 56.088 149.706 55.704C149.071 55.3147 148.322 55.12 147.458 55.12C146.61 55.12 145.869 55.312 145.234 55.696C144.599 56.08 144.106 56.6133 143.754 57.296C143.402 57.9787 143.226 58.7707 143.226 59.672C143.226 60.5627 143.399 61.352 143.746 62.04C144.093 62.728 144.581 63.2667 145.21 63.656C145.845 64.0453 146.594 64.24 147.458 64.24ZM147.458 62.664C146.653 62.664 146.042 62.3947 145.626 61.856C145.21 61.312 145.002 60.584 145.002 59.672C145.002 58.792 145.202 58.0773 145.602 57.528C146.002 56.9733 146.621 56.696 147.458 56.696C148.274 56.696 148.887 56.9653 149.298 57.504C149.714 58.0427 149.922 58.7653 149.922 59.672C149.922 60.5573 149.717 61.2773 149.306 61.832C148.901 62.3867 148.285 62.664 147.458 62.664ZM153.456 64H155.144V59.64C155.144 59.1333 155.224 58.664 155.384 58.232C155.544 57.8 155.827 57.4533 156.232 57.192C156.52 57.0053 156.837 56.896 157.184 56.864C157.531 56.832 157.843 56.8533 158.12 56.928V55.36C157.731 55.2853 157.317 55.288 156.88 55.368C156.448 55.448 156.069 55.608 155.744 55.848C155.424 56.0613 155.157 56.3573 154.944 56.736V55.36H153.456V64Z" fill="#F84646"/>
<g clip-path="url(#clip0_8_268)">
<path d="M171.5 58H182.5" stroke="#F84646" stroke-width="2" stroke-linecap="round" stroke-linejoin="round"/>
<path d="M178 53.5L182.5 58L178 62.5" stroke="#F84646" stroke-width="2" stroke-linecap="round" stroke-linejoin="round"/>
</g>
<defs>
<filter id="filter0_d_8_268" x="0" y="0" width="250" height="176" filterUnits="userSpaceOnUse" color-interpolation-filters="sRGB">
<feFlood flood-opacity="0" result="BackgroundImageFix"/>
<feColorMatrix in="SourceAlpha" type="matrix" values="0 0 0 0 0 0 0 0 0 0 0 0 0 0 0 0 0 0 127 0" result="hardAlpha"/>
<feOffset dy="30"/>
<feGaussianBlur stdDeviation="20"/>
<feColorMatrix type="matrix" values="0 0 0 0 0.831373 0 0 0 0 0.85098 0 0 0 0 0.909804 0 0 0 0.2 0"/>
<feBlend mode="normal" in2="BackgroundImageFix" result="effect1_dropShadow_8_268"/>
<feBlend mode="normal" in="SourceGraphic" in2="effect1_dropShadow_8_268" result="shape"/>
</filter>
<clipPath id="clip0_8_268">
<rect width="16" height="16" fill="white" transform="translate(169 50)"/>
</clipPath>
</defs>
</svg>
