<svg width="250" height="176" viewBox="0 0 250 176" fill="none" xmlns="http://www.w3.org/2000/svg">
<g filter="url(#filter0_d_8_278)">
<rect x="40" y="10" width="170" height="96" rx="16" fill="white"/>
</g>
<g clip-path="url(#clip0_8_278)">
<path fill-rule="evenodd" clip-rule="evenodd" d="M162.376 56.8408L156.139 67.6751L150.817 67.6963L162.376 47.3038L173.892 67.6963H168.486L162.376 56.8397V56.8408ZM145.581 62.9799H151.541L148.774 67.6963H141.006L141.027 61.9535V47.4292H145.603L145.582 62.9799H145.581ZM129.235 47.4302C134.918 47.4515 139.516 51.9777 139.495 57.5728C139.474 63.1478 134.876 67.6751 129.192 67.6751C123.53 67.6538 118.933 63.1276 118.933 57.5314C118.954 51.9565 123.551 47.4302 129.235 47.4302ZM129.214 62.9597C132.257 62.9597 134.704 60.5489 134.704 57.5728C134.726 54.5978 132.257 52.1658 129.235 52.1658C126.212 52.1445 123.743 54.5766 123.743 57.5527C123.722 60.5277 126.191 62.9597 129.213 62.9597H129.214ZM110.461 55.9632C110.398 55.1238 110.184 54.0135 109.865 52.9457C109.208 50.74 108.066 48.7124 106.523 47.0137C105.714 46.134 104.8 45.3158 103.436 44.3522C102.396 43.8349 101.374 43.2828 100.372 42.6968C99.7119 42.3196 98.9237 41.8574 97.8815 41.5227C96.6458 41.2286 95.3827 41.0673 94.1133 41.0414C92.8804 40.9989 91.6443 41.1052 90.4525 41.3347C89.1964 41.544 88.1532 41.8787 86.7696 42.2144C83.6399 43.5765 81.2142 45.6303 79.1277 48.3557C71.8483 58.6035 78.4259 72.96 90.58 74.6568C92.5811 74.9298 94.5822 74.8247 96.4758 74.3848L97.8173 74.0288C97.8594 74.0076 97.9237 73.9863 97.9658 73.9863L99.4991 73.3998C99.5834 73.3573 99.6477 73.3361 99.733 73.2947L100.372 73.0014C101.597 72.3917 102.747 71.6393 103.798 70.7595C102.841 71.6364 101.8 72.4155 100.691 73.0853L100.754 73.1278C100.968 73.0641 101.159 73.0014 101.372 72.96C101.372 72.96 101.372 73.2947 101.329 73.232C100.989 73.4838 101.521 73.2532 102.202 72.8962C102.884 72.5403 103.543 72.0993 104.139 71.5968C105.012 70.8637 105.778 70.0668 106.864 68.7684C107.97 66.8187 109.355 65.1208 109.993 62.8365C110.206 62.2287 110.397 61.5168 110.526 60.7827C110.652 60.0495 110.739 59.2952 110.739 58.5195C110.717 57.7439 110.632 56.947 110.461 55.9632ZM94.7097 73.1905C98.4348 72.603 101.563 70.529 104.118 67.6995C104.821 66.6721 105.374 65.7286 106.055 64.7022C106.906 62.6059 106.843 60.7412 107.119 59.4216C107.46 57.031 106.651 55.1036 105.97 53.0498C104.927 50.6602 103.543 48.8795 101.117 47.4961C94.9858 43.6817 86.6421 44.7495 82.662 50.4509C82.641 50.4509 82.5335 50.5975 82.3206 50.8908C82.5978 49.7178 83.3006 49.0261 84.0024 48.3546C86.0889 46.6365 88.5157 45.2733 91.2829 44.604C94.4126 44.2682 97.5191 44.604 100.307 45.9661C104.48 48.3546 107.247 52.1073 107.949 56.5486V60.6573C107.077 67.385 101.329 72.4988 94.7097 73.1905ZM110.015 57.8905C109.865 48.0412 100.138 41.3973 90.6654 42.7393C87.8982 43.4299 84.8749 44.8133 82.7253 46.7417C81.682 47.4323 81.1931 48.7116 80.1499 49.738C75.977 55.8792 76.702 63.7385 81.8949 68.5177C82.561 69.1817 83.2723 69.798 84.0235 70.3622C79.682 67.741 77.7231 63.7789 77.0423 58.9605C77.0423 57.2413 77.3827 55.5435 77.7441 53.8254C80.172 46.3008 87.8128 40.831 96.1365 42.2144C97.5201 42.5502 98.9037 42.9061 100.309 43.2418C102.054 43.9325 103.778 44.9599 105.162 46.3231C106.546 47.6842 107.589 49.4033 108.632 51.1001C109.334 52.4633 109.675 54.1813 110.016 55.5435C110.079 56.3191 110.079 57.116 110.016 57.8916L110.015 57.8905Z" fill="black"/>
<path fill-rule="evenodd" clip-rule="evenodd" d="M101.373 58.0381C101.373 62.2722 97.8392 65.7094 93.4756 65.7094C89.113 65.7094 85.5787 62.2722 85.5787 58.0381C85.5787 53.8051 89.112 50.3679 93.4756 50.3679C97.8392 50.3679 101.373 53.8051 101.373 58.0392V58.0381Z" fill="white"/>
<path fill-rule="evenodd" clip-rule="evenodd" d="M101.416 56.7386C101.309 56.1521 101.139 55.691 100.969 55.0418C100.287 53.6159 99.2871 52.5056 97.9668 51.5621C93.0288 48.2726 86.2384 51.4367 85.5155 57.0542C85.2394 59.2759 86.0266 61.4136 87.4312 63.0488C87.0055 62.6079 86.5376 62.1478 86.2184 61.6229L86.1762 61.6654C86.2184 61.7908 86.3891 61.8747 86.4312 62.0001C86.4312 62.0001 86.2605 62.0001 86.3037 61.9789C86.1762 61.8333 86.2826 62.0639 86.4734 62.3773C86.6441 62.6918 86.8569 62.9861 87.1119 63.2581C87.4744 63.6566 87.857 64.0125 88.4955 64.4949C89.4334 64.9762 90.2627 65.6052 91.3481 65.8984C91.6463 65.9834 91.9867 66.0663 92.3281 66.129C92.6895 66.1927 93.0299 66.214 93.4135 66.214C93.7749 66.214 94.1585 66.1715 94.6263 66.0865C95.1088 66.0292 95.5857 65.9315 96.0521 65.7943C97.0938 65.4781 98.0534 64.9339 98.8625 64.2006C99.2671 63.8244 99.8425 63.3421 100.288 62.7131C100.651 62.0012 100.693 61.6442 100.864 61.3297C101.033 61.0152 101.246 60.6592 101.396 60.1769C101.518 59.6046 101.589 59.0225 101.609 58.4376C101.587 57.8511 101.545 57.2847 101.417 56.7397L101.416 56.7386ZM96.3492 52.8414C97.0732 53.26 97.1796 53.3227 96.796 53.0507C97.3503 53.1761 97.6907 53.4906 98.031 53.8051C98.8614 54.7486 99.5421 55.8589 99.8825 57.1371C100.074 58.5831 99.9247 60.0292 99.3082 61.3084C98.2018 63.2571 96.4346 64.5565 94.3271 64.9124C94.0931 64.9124 93.8381 64.9124 93.6031 64.9337C94.1996 64.8285 94.5831 64.4513 95.6685 64.0529C96.8382 63.6342 98.1585 61.6856 98.7982 60.553C100.671 57.4717 98.4568 54.6221 96.3492 52.8414ZM92.3481 64.9539C89.113 64.6192 86.6219 61.9576 86.2816 58.8764C86.5787 60.5955 87.6009 61.9151 88.9845 63.0892C89.4745 63.4037 90.1974 63.8436 90.6874 64.1581C91.5177 64.4726 92.0067 64.8083 92.816 64.9549H92.3481V64.9539ZM101.053 59.3587C100.906 60.009 100.756 60.6369 100.606 61.2872C100.287 62.0841 99.8193 62.9011 99.1807 63.5503C98.5421 64.2006 97.7328 64.7031 96.9246 65.1855C96.286 65.5202 95.4767 65.6881 94.8171 65.8549C94.4335 65.8974 93.9867 65.7295 93.6031 65.7093C98.3293 65.5829 101.564 61.1618 100.863 56.7811C100.521 55.5029 99.8404 54.3916 99.01 53.2812C98.6696 52.7989 98.0089 52.5056 97.52 52.0232C94.561 50.1586 90.6452 50.5357 88.4102 52.988C88.0968 53.3102 87.8049 53.6531 87.5366 54.0144C88.7295 52.2538 90.6452 51.0181 92.9435 50.6611C93.7528 50.6399 94.5831 50.7876 95.3914 50.9342C98.9678 52.0232 101.629 55.5029 101.053 59.3598V59.3587Z" fill="#D7DF23"/>
</g>
<defs>
<filter id="filter0_d_8_278" x="0" y="0" width="250" height="176" filterUnits="userSpaceOnUse" color-interpolation-filters="sRGB">
<feFlood flood-opacity="0" result="BackgroundImageFix"/>
<feColorMatrix in="SourceAlpha" type="matrix" values="0 0 0 0 0 0 0 0 0 0 0 0 0 0 0 0 0 0 127 0" result="hardAlpha"/>
<feOffset dy="30"/>
<feGaussianBlur stdDeviation="20"/>
<feColorMatrix type="matrix" values="0 0 0 0 0.831373 0 0 0 0 0.85098 0 0 0 0 0.909804 0 0 0 0.2 0"/>
<feBlend mode="normal" in2="BackgroundImageFix" result="effect1_dropShadow_8_278"/>
<feBlend mode="normal" in="SourceGraphic" in2="effect1_dropShadow_8_278" result="shape"/>
</filter>
<clipPath id="clip0_8_278">
<rect width="98" height="34" fill="white" transform="translate(76 41)"/>
</clipPath>
</defs>
</svg>
