<svg width="170" height="96" viewBox="0 0 170 96" fill="none" xmlns="http://www.w3.org/2000/svg">
<g clip-path="url(#clip0_8_285)">
<g filter="url(#filter0_d_8_285)">
<rect width="170" height="96" rx="16" fill="white"/>
</g>
<g clip-path="url(#clip1_8_285)">
<path fill-rule="evenodd" clip-rule="evenodd" d="M97.8991 57.0249C91.9136 61.5732 83.238 63.9999 75.7685 63.9999C65.295 63.9999 55.8661 60.0063 48.7328 53.3641C48.1724 52.8417 48.6745 52.1299 49.3471 52.5367C57.0453 57.1543 66.5638 59.9323 76.3962 59.9323C83.0273 59.9323 90.322 58.5179 97.0293 55.5827C98.0426 55.139 98.89 56.2668 97.8991 57.0249Z" fill="#FF9900"/>
<path fill-rule="evenodd" clip-rule="evenodd" d="M100.388 54.0898C99.6256 53.0821 95.3304 53.6137 93.4025 53.8494C92.8152 53.9234 92.7255 53.3964 93.2545 53.0174C96.6755 50.5352 102.289 51.2517 102.943 52.0837C103.598 52.9203 102.773 58.7213 99.5584 61.49C99.0652 61.9153 98.5944 61.6888 98.8141 61.1249C99.5359 59.2667 101.154 55.1021 100.388 54.0898Z" fill="#FF9900"/>
<path fill-rule="evenodd" clip-rule="evenodd" d="M93.5369 35.4944V33.0816C93.5369 32.7164 93.8059 32.4714 94.1287 32.4714H104.607C104.943 32.4714 105.212 32.721 105.212 33.0816V35.1477C105.207 35.4944 104.925 35.9474 104.423 36.6638L98.9933 44.6557C101.011 44.6049 103.141 44.9146 104.97 45.9777C105.382 46.2181 105.494 46.5694 105.526 46.916V49.4906C105.526 49.8419 105.149 50.2533 104.755 50.0407C101.531 48.2981 97.2492 48.1086 93.6848 50.0592C93.3216 50.2626 92.9406 49.8558 92.9406 49.5045V47.0593C92.9406 46.6664 92.945 45.9962 93.3261 45.3999L99.6165 36.0999H94.1421C93.8059 36.0999 93.5369 35.8549 93.5369 35.4944Z" fill="black"/>
<path fill-rule="evenodd" clip-rule="evenodd" d="M55.3147 50.5492H52.1269C51.822 50.5261 51.5799 50.2904 51.5575 49.99V33.1233C51.5575 32.7859 51.831 32.5178 52.1717 32.5178H55.1443C55.4537 32.5316 55.7003 32.7766 55.7227 33.0817V35.2865H55.781C56.5566 33.1557 58.0138 32.1619 59.9776 32.1619C61.9727 32.1619 63.2191 33.1557 64.1158 35.2865C64.887 33.1557 66.6401 32.1619 68.5187 32.1619C69.8548 32.1619 71.3164 32.7304 72.2086 34.0062C73.2174 35.4252 73.0112 37.4867 73.0112 39.294L73.0067 49.9391C73.0067 50.2765 72.7332 50.5492 72.3924 50.5492H69.2091C68.8908 50.5261 68.6352 50.2627 68.6352 49.9391V40.9996C68.6352 40.2878 68.698 38.5129 68.5456 37.838C68.3079 36.7056 67.5951 36.3866 66.6715 36.3866C65.9003 36.3866 65.0933 36.9182 64.766 37.7687C64.4387 38.6192 64.47 40.0428 64.47 40.9996V49.9391C64.47 50.2765 64.1966 50.5492 63.8558 50.5492H60.6725C60.3497 50.5261 60.0986 50.2627 60.0986 49.9391L60.0941 40.9996C60.0941 39.1184 60.3945 36.3496 58.1303 36.3496C55.8393 36.3496 55.9289 39.049 55.9289 40.9996V49.9391C55.9289 50.2765 55.6554 50.5492 55.3147 50.5492" fill="black"/>
<path fill-rule="evenodd" clip-rule="evenodd" d="M114.233 32.1619C118.963 32.1619 121.523 36.3496 121.523 41.6745C121.523 46.8191 118.694 50.9005 114.233 50.9005C109.588 50.9005 107.059 46.7128 107.059 41.4942C107.059 36.2433 109.619 32.1619 114.233 32.1619ZM114.259 35.6055C111.91 35.6055 111.762 38.9058 111.762 40.9627C111.762 43.0242 111.731 47.4246 114.233 47.4246C116.703 47.4246 116.82 43.8747 116.82 41.7115C116.82 40.2878 116.761 38.5868 116.344 37.2371C115.986 36.0631 115.273 35.6055 114.259 35.6055Z" fill="black"/>
<path fill-rule="evenodd" clip-rule="evenodd" d="M127.656 50.5492H124.482C124.164 50.5261 123.908 50.2627 123.908 49.9391L123.904 33.0678C123.931 32.7581 124.195 32.5178 124.518 32.5178H127.473C127.751 32.5316 127.979 32.7258 128.042 32.9893V35.5685H128.1C128.992 33.262 130.243 32.1619 132.445 32.1619C133.875 32.1619 135.269 32.6934 136.166 34.1494C137 35.4991 137 37.7687 137 39.4003V50.0177C136.964 50.3135 136.7 50.5492 136.386 50.5492H133.189C132.898 50.5261 132.655 50.3043 132.624 50.0177V40.8564C132.624 39.0121 132.83 36.3127 130.629 36.3127C129.853 36.3127 129.14 36.8488 128.786 37.6624C128.338 38.6931 128.28 39.7193 128.28 40.8564V49.9391C128.275 50.2765 127.997 50.5492 127.656 50.5492" fill="black"/>
<path fill-rule="evenodd" clip-rule="evenodd" d="M85.184 42.4926C85.184 43.7729 85.2154 44.8407 84.5877 45.9777C84.0811 46.9022 83.274 47.4707 82.3818 47.4707C81.1578 47.4707 80.4404 46.5093 80.4404 45.0903C80.4404 42.2892 82.875 41.7807 85.184 41.7807V42.4926ZM88.3987 50.5029C88.188 50.6971 87.8831 50.7109 87.6455 50.5815C86.5873 49.6756 86.3946 49.2549 85.8162 48.3906C84.0676 50.2302 82.8257 50.7803 80.5615 50.7803C77.8759 50.7803 75.791 49.0747 75.791 45.6588C75.791 42.9918 77.1899 41.1752 79.1895 40.2877C80.9202 39.5019 83.3368 39.3633 85.184 39.146V38.7208C85.184 37.9396 85.2423 37.0152 84.7939 36.3403C84.4084 35.7348 83.6641 35.4852 83.005 35.4852C81.79 35.4852 80.7094 36.1277 80.4449 37.4589C80.3911 37.7547 80.1804 38.0459 79.889 38.0598L76.7998 37.7177C76.5398 37.6577 76.2483 37.4404 76.3246 37.029C77.033 33.1648 80.4225 32 83.4534 32C85.0047 32 87.0312 32.4252 88.2552 33.6363C89.8065 35.1293 89.6586 37.1215 89.6586 39.2893V44.4108C89.6586 45.95 90.2773 46.6249 90.8601 47.4569C91.0619 47.7527 91.1067 48.1086 90.8467 48.3305C90.1966 48.8898 89.0398 49.9298 88.4032 50.5122L88.3987 50.5029" fill="black"/>
<path fill-rule="evenodd" clip-rule="evenodd" d="M43.393 42.4928C43.393 43.7732 43.4244 44.8409 42.7967 45.978C42.29 46.9024 41.4875 47.471 40.5908 47.471C39.3668 47.471 38.6539 46.5095 38.6539 45.0905C38.6539 42.2894 41.0884 41.781 43.393 41.781V42.4928ZM46.6077 50.5032C46.3969 50.6973 46.0921 50.7112 45.8544 50.5818C44.7963 49.6758 44.608 49.2552 44.0252 48.3908C42.2766 50.2305 41.0391 50.7805 38.7705 50.7805C36.0893 50.7805 34 49.0749 34 45.6591C34 42.992 35.4033 41.1755 37.3985 40.288C39.1291 39.5022 41.5458 39.3635 43.393 39.1463V38.721C43.393 37.9399 43.4513 37.0154 43.0074 36.3406C42.6173 35.735 41.8731 35.4854 41.2185 35.4854C40.0034 35.4854 38.9184 36.1279 38.6539 37.4591C38.6001 37.755 38.3894 38.0462 38.1024 38.06L35.0088 37.718C34.7487 37.6579 34.4618 37.4407 34.5335 37.0293C35.2464 33.1651 38.6315 32.0002 41.6623 32.0002C43.2136 32.0002 45.2402 32.4255 46.4642 33.6365C48.0155 35.1295 47.8675 37.1217 47.8675 39.2896V44.411C47.8675 45.9503 48.4863 46.6251 49.0691 47.4571C49.2754 47.7529 49.3202 48.1089 49.0602 48.3307C48.41 48.89 47.2533 49.93 46.6166 50.5124L46.6077 50.5032" fill="black"/>
</g>
</g>
<defs>
<filter id="filter0_d_8_285" x="-40" y="-10" width="250" height="176" filterUnits="userSpaceOnUse" color-interpolation-filters="sRGB">
<feFlood flood-opacity="0" result="BackgroundImageFix"/>
<feColorMatrix in="SourceAlpha" type="matrix" values="0 0 0 0 0 0 0 0 0 0 0 0 0 0 0 0 0 0 127 0" result="hardAlpha"/>
<feOffset dy="30"/>
<feGaussianBlur stdDeviation="20"/>
<feColorMatrix type="matrix" values="0 0 0 0 0.831373 0 0 0 0 0.85098 0 0 0 0 0.909804 0 0 0 0.2 0"/>
<feBlend mode="normal" in2="BackgroundImageFix" result="effect1_dropShadow_8_285"/>
<feBlend mode="normal" in="SourceGraphic" in2="effect1_dropShadow_8_285" result="shape"/>
</filter>
<clipPath id="clip0_8_285">
<rect width="170" height="96" fill="white"/>
</clipPath>
<clipPath id="clip1_8_285">
<rect width="103" height="32" fill="white" transform="translate(34 32)"/>
</clipPath>
</defs>
</svg>
