<svg width="120" height="120" viewBox="0 0 120 120" fill="none" xmlns="http://www.w3.org/2000/svg">
<circle cx="85.5" cy="36.5" r="30.5" fill="#F84646"/>
<path d="M41.2502 75C54.7121 75 65.6252 64.0869 65.6252 50.625C65.6252 37.1631 54.7121 26.25 41.2502 26.25C27.7882 26.25 16.8752 37.1631 16.8752 50.625C16.8752 64.0869 27.7882 75 41.2502 75Z" stroke="black" stroke-width="2" stroke-miterlimit="10"/>
<path d="M72.8496 27.1582C76.2022 26.2136 79.7183 25.9984 83.161 26.5271C86.6038 27.0558 89.8933 28.3162 92.8079 30.2232C95.7226 32.1303 98.1947 34.6398 100.058 37.5828C101.921 40.5257 103.132 43.8338 103.609 47.2841C104.086 50.7344 103.818 54.2469 102.823 57.5849C101.828 60.9229 100.13 64.009 97.8417 66.6353C95.5537 69.2616 92.7296 71.3672 89.5594 72.8101C86.3892 74.253 82.9466 74.9998 79.4635 75.0002" stroke="black" stroke-width="2" stroke-linecap="round" stroke-linejoin="round"/>
<path d="M7.49817 92.5297C11.305 87.1147 16.3589 82.6951 22.2331 79.6441C28.1073 76.5931 34.6293 75.0003 41.2486 75C47.8678 74.9997 54.39 76.5921 60.2644 79.6427C66.1388 82.6932 71.193 87.1124 75.0003 92.5271" stroke="black" stroke-width="2" stroke-linecap="round" stroke-linejoin="round"/>
<path d="M79.4635 75C86.0833 74.9952 92.6069 76.5856 98.4818 79.6366C104.357 82.6875 109.41 87.1092 113.214 92.5271" stroke="black" stroke-width="2" stroke-linecap="round" stroke-linejoin="round"/>
</svg>
